<svg style="position: absolute; width: 0; height: 0; overflow: hidden;" version="1.1" xmlns="http://www.w3.org/2000/svg" xmlns:xlink="http://www.w3.org/1999/xlink">
<defs>
<symbol id="icon-playplay" viewBox="0 0 32 32">
<title>play</title>
<path class="path1" d="M12.525 0.375c-4.45 0.975-8.7 4.3-10.725 8.4-3.175 6.4-2.025 13.5 2.95 18.475 6.275 6.3 16.225 6.3 22.5 0 6.3-6.275 6.3-16.225 0-22.5-3.875-3.9-9.375-5.525-14.725-4.375zM18.6 11.25c5.6 3.825 5.65 3.875 5.65 4.75s-0.050 0.925-5.65 4.75c-4.8 3.325-5.525 3.625-6.4 2.825-0.425-0.375-0.45-0.95-0.45-7.525 0-9.825-0.225-9.675 6.85-4.8z"></path>
</symbol>
</defs>
</svg>
